<svg width="400" height="80" viewBox="0 0 400 80" fill="none" xmlns="http://www.w3.org/2000/svg">
  <defs>
    <style>
      @import url('https://fonts.googleapis.com/css2?family=Inter:wght@400;700;900&amp;display=swap');
    </style>
  </defs>

  <!-- ESTOQUE - Outline text -->
  <text x="0" y="32" font-family="Inter, Arial, sans-serif" font-weight="900" font-size="34"
        fill="none" stroke="#343434" stroke-width="1.2" letter-spacing="-1">
    ESTOQUE
  </text>

  <!-- Barcode decorative element -->
  <g transform="translate(0, 38)">
    <rect x="0" y="0" width="3" height="16" fill="#343434"/>
    <rect x="5" y="0" width="2" height="16" fill="#343434"/>
    <rect x="9" y="0" width="4" height="16" fill="#343434"/>
    <rect x="15" y="0" width="1.5" height="16" fill="#343434"/>
    <rect x="18" y="0" width="3" height="16" fill="#343434"/>
    <rect x="23" y="0" width="2" height="16" fill="#343434"/>
    <rect x="27" y="0" width="1.5" height="16" fill="#343434"/>
    <rect x="31" y="0" width="4" height="16" fill="#343434"/>
    <rect x="37" y="0" width="2" height="16" fill="#343434"/>
    <rect x="41" y="0" width="3" height="16" fill="#343434"/>
    <rect x="46" y="0" width="1.5" height="16" fill="#343434"/>
    <rect x="49" y="0" width="2" height="16" fill="#343434"/>
    <rect x="53" y="0" width="4" height="16" fill="#343434"/>
    <rect x="59" y="0" width="1.5" height="16" fill="#343434"/>
    <rect x="62" y="0" width="3" height="16" fill="#343434"/>
    <rect x="67" y="0" width="2" height="16" fill="#343434"/>
    <rect x="71" y="0" width="1.5" height="16" fill="#343434"/>
    <rect x="75" y="0" width="3" height="16" fill="#343434"/>
    <rect x="80" y="0" width="2" height="16" fill="#343434"/>
    <rect x="84" y="0" width="4" height="16" fill="#343434"/>
    <rect x="90" y="0" width="1.5" height="16" fill="#343434"/>
    <rect x="93" y="0" width="2" height="16" fill="#343434"/>
    <rect x="97" y="0" width="3" height="16" fill="#343434"/>
    <rect x="102" y="0" width="1.5" height="16" fill="#343434"/>
    <rect x="105" y="0" width="2" height="16" fill="#343434"/>
    <rect x="109" y="0" width="4" height="16" fill="#343434"/>
    <rect x="115" y="0" width="2" height="16" fill="#343434"/>
    <rect x="119" y="0" width="1.5" height="16" fill="#343434"/>
    <rect x="123" y="0" width="3" height="16" fill="#343434"/>
    <rect x="128" y="0" width="2" height="16" fill="#343434"/>
    <rect x="132" y="0" width="1.5" height="16" fill="#343434"/>
    <rect x="136" y="0" width="3" height="16" fill="#343434"/>
    <rect x="141" y="0" width="2" height="16" fill="#343434"/>
    <rect x="145" y="0" width="4" height="16" fill="#343434"/>
    <rect x="151" y="0" width="1.5" height="16" fill="#343434"/>
    <rect x="155" y="0" width="2" height="16" fill="#343434"/>
  </g>

  <!-- Orange trapezoid shape -->
  <polygon points="165,8 380,8 395,52 150,52" fill="#f84704"/>

  <!-- BRASIL. text inside orange shape -->
  <text x="205" y="38" font-family="Inter, Arial, sans-serif" font-weight="900" font-size="32"
        fill="#1a1a1a" letter-spacing="-1">
    BRASIL.
  </text>

  <!-- INVENTÁRIOS text -->
  <text x="255" y="50" font-family="Inter, Arial, sans-serif" font-weight="700" font-size="11"
        fill="#f84704" letter-spacing="3">
    INVENTÁRIOS
  </text>

  <!-- Subtitle -->
  <text x="0" y="72" font-family="Inter, Arial, sans-serif" font-weight="500" font-size="9"
        fill="#666666" letter-spacing="3">
    SOLUÇÕES EM GESTÃO DE ESTOQUE
  </text>
</svg>
